<svg xmlns="http://www.w3.org/2000/svg" width="120" height="132" viewBox="0 0 120 132"><defs><style>.a{fill:#ff6e4e;opacity:0.21;}</style></defs><path class="a" d="M-8887.5,13213a97.789,97.789,0,0,1-39.9-8.448,101.211,101.211,0,0,1-17.414-9.909,104.485,104.485,0,0,1-15.169-13.128,107.313,107.313,0,0,1-12.515-15.91,109.114,109.114,0,0,1-9.448-18.261A111.283,111.283,0,0,1-8990,13105.5a113.143,113.143,0,0,1,2.672-24.5H-8870v130.445A98.963,98.963,0,0,1-8887.5,13213Z" transform="translate(8989.999 -13081)"/></svg>